<svg id="Layer_10" data-name="Layer 10" xmlns="http://www.w3.org/2000/svg" xmlns:xlink="http://www.w3.org/1999/xlink" viewBox="0 0 1308.17 1194.41"><defs><style>.cls-1,.cls-10,.cls-12,.cls-13,.cls-15,.cls-18,.cls-19,.cls-4,.cls-7,.cls-9{fill:none;}.cls-2{clip-path:url(#clip-path);}.cls-3{fill:#321e60;}.cls-4{stroke:#321e60;}.cls-10,.cls-12,.cls-13,.cls-15,.cls-18,.cls-19,.cls-4,.cls-7,.cls-9{stroke-miterlimit:10;}.cls-18,.cls-4{stroke-width:60px;}.cls-5{fill:#422a7a;}.cls-6{fill:#d7a780;}.cls-7{stroke:#d7a780;stroke-width:40px;}.cls-8{fill:#f1f1f2;}.cls-9{stroke:#f1f1f2;stroke-width:16.1px;}.cls-10,.cls-12,.cls-13{stroke:#231f20;}.cls-10{stroke-width:30px;}.cls-11{fill:#231f20;}.cls-12{stroke-width:16px;}.cls-13{stroke-width:14.58px;}.cls-14{fill:#e7b689;}.cls-15{stroke:#e7b689;stroke-width:61.08px;}.cls-16{fill:#18191d;}.cls-17{fill:#323031;}.cls-18,.cls-19{stroke:#323031;}.cls-19{stroke-width:12px;}.cls-20{opacity:0.3;}.cls-21{clip-path:url(#clip-path-14);}.cls-22{opacity:0.8;}.cls-23{clip-path:url(#clip-path-16);}.cls-24{clip-path:url(#clip-path-18);}.cls-25{opacity:0.4;}.cls-26{clip-path:url(#clip-path-20);}</style><clipPath id="clip-path" transform="translate(120.94 -42.58)"><rect class="cls-1" width="1000" height="1200"/></clipPath><clipPath id="clip-path-14" transform="translate(120.94 -42.58)"><rect class="cls-1" y="-26.72" width="1025.02" height="1025.02"/></clipPath><clipPath id="clip-path-16" transform="translate(120.94 -42.58)"><rect class="cls-1" x="-311.82" y="-229.58" width="1405.64" height="1377.7"/></clipPath><clipPath id="clip-path-18" transform="translate(120.94 -42.58)"><rect class="cls-1" x="13.02" y="-23.06" width="980.64" height="1025.78"/></clipPath><clipPath id="clip-path-20" transform="translate(120.94 -42.58)"><rect class="cls-1" x="184.48" y="326.55" width="593.91" height="287.4"/></clipPath></defs><title>Icon</title><g class="cls-2"><g class="cls-2"><g class="cls-2"><path class="cls-3" d="M-90.88,1200c-3.34-6.25,128.39-195.11,141.55-199.67s27.59-10.57,32.41-13.84c14.68-10,56.81-38.11,72.57-45,14.14-6.22,41.28-18,53.63-27.85,12.89-10.22,17.76-17.46,30.79-25.54,16.55-10.26,36.49-9.24,55.56-13.17,33.41-6.88,82.92-54.3,113-67.81,40.85-18.37,160.53-24.31,204-13.5,46.74,11.63,82,67.54,148.68,80.43,53,10.24,110.52,31.88,145.14,63.14,18.11,16.35,89.39,49.16,109.39,63.92,9.13,6.74,146.94,185.62,141.25,198.94-4.06,9.5-1243.06,9.14-1247.94,0" transform="translate(120.94 -42.58)"/><path class="cls-4" d="M-90.88,1200c-3.34-6.25,128.39-195.11,141.55-199.67s27.59-10.57,32.41-13.84c14.68-10,56.81-38.11,72.57-45,14.14-6.22,41.28-18,53.63-27.85,12.89-10.22,17.76-17.46,30.79-25.54,16.55-10.26,36.49-9.24,55.56-13.17,33.41-6.88,82.92-54.3,113-67.81,40.85-18.37,160.53-24.31,204-13.5,46.74,11.63,82,67.54,148.68,80.43,53,10.24,110.52,31.88,145.14,63.14,18.11,16.35,89.39,49.16,109.39,63.92,9.13,6.74,146.94,185.62,141.25,198.94C1153,1209.5-86,1209.14-90.88,1200Z" transform="translate(120.94 -42.58)"/></g><g class="cls-2"><path class="cls-5" d="M277.57,829.24c4.13-14.34,9.8-23,13.83-29.29,1-1.6,2-3.11,2.93-4.7l1.88-3.22c9.5-16.32,22.52-38.66,50.18-47.52,17.28-5.53,40-12.51,62.76-17.39,5.22-1.12,10.47-2.35,16-3.64,19.17-4.47,39-9.09,60.18-10.09,29.57-1.4,64.66-2,100.66,4.26,28.93,5,56.43,12.92,79.93,19.93,42.32,12.62,93.73,34,115.79,87.76,3.43,8.36,3.48,9.93,3.58,15.14l-73-12c-12.88-13.33-32.58-24.19-63.57-33.43-27.89-8.32-49.84-14.29-73-18.31-30.27-5.25-61.26-4.69-87.57-3.44-15.72.74-32.07,4.56-49.39,8.59-5.57,1.3-11.33,2.64-17.07,3.87-20.18,4.33-41.09,10.76-57.06,15.87-5.17,1.65-9,7.54-16.62,20.57-.66,1.14-1.42,4.34-2.09,5.48Z" transform="translate(120.94 -42.58)"/></g><g class="cls-2"><path class="cls-6" d="M702.11,773.21q-.9-3.67-1.82-7.45c-2.3-9.46-5.09-24.62-7.78-39.29-3.36-18.28-6.83-37.18-10.21-50l-29,7.61L367.6,741.85h-30c0,38.51,2.63,87.49,23.12,124.64,4.77,8.63,8.71,22.67,12.89,37.53,8.75,31.16,18.67,66.48,45.46,88.28,9.46,7.69,20.15,15.65,30.49,23.34l6.87,5.11c4.45,6.45,18.82,26,28.83,35.25,30.5,28.25,29.12,25.53,39.94,40.25,3.31,4.5,13.56,30,13.56,30L548,1118l17.42-27s9.51-16.05,12.91-18.36c7.67-4.7,13.58-11,18.32-16.06a76.45,76.45,0,0,1,6.15-6.15,69.86,69.86,0,0,1,9.33-3.76c7.79-2.71,18.46-6.43,28.93-16.76,14.68-14.47,17.66-34.82,20.54-54.51,1.57-10.72,3.19-21.8,6.51-30,3.41-8.39,10.16-16.55,16.69-24.44,7.14-8.64,13.89-16.79,17.71-26.81,17.83-46.79,9-82.82-.4-121" transform="translate(120.94 -42.58)"/></g><g class="cls-2"><path class="cls-7" d="M688.75,483.85c-.11-9.62,14.77-19.61,22.94-11.91,9.12,8.59.41,34-1.54,43.41-3.86,18.64-3.5,39-8.35,57.2-3.43,12.85-10.36,30.52-18,41.27a11.68,11.68,0,0,1-2.38,2.72" transform="translate(120.94 -42.58)"/><path class="cls-7" d="M291.9,509.67c-41-17.38-11.3,49.57-6.15,64.32,11.9,34,31.64,66.52,70.47,74.22" transform="translate(120.94 -42.58)"/></g><g class="cls-2"><path class="cls-8" d="M641.63,1019.1c-5.24,10.08-18.12,13.53-28,17-12.78,4.45-27.45,9.37-39.3,16.87-18.25,11.54-34.57,63.06-34.57,63.06l-27.25-36.75L490.25,1058l-22.5-20.5s-20.52-11.42-28.32-19.19c-2.53-2.53-17.93-9-17.93-13.31,0-7.31,43.77,9.7,50.24,11.24,22.44,5.36,45.81,10.28,68.92,10.59,18.84.25,41.33.83,58.48-3.69,7-1.83,13-3.38,19.77-5.81,6.41-2.31,12.52-4.73,17.9-9.08s7.69-9.17,13.85-13.25Z" transform="translate(120.94 -42.58)"/><path class="cls-9" d="M641.63,1019.1c-5.24,10.08-18.12,13.53-28,17-12.78,4.45-27.45,9.37-39.3,16.87-18.25,11.54-34.57,63.06-34.57,63.06l-27.25-36.75L490.25,1058l-22.5-20.5s-20.52-11.42-28.32-19.19c-2.53-2.53-17.93-9-17.93-13.31,0-7.31,43.77,9.7,50.24,11.24,22.44,5.36,45.81,10.28,68.92,10.59,18.84.25,41.33.83,58.48-3.69,7-1.83,13-3.38,19.77-5.81,6.41-2.31,12.52-4.73,17.9-9.08s7.69-9.17,13.85-13.25Z" transform="translate(120.94 -42.58)"/></g><g class="cls-2"><path class="cls-5" d="M277.57,829.24c-10.14,25.1-16.59,60.62-8.4,95.55,5.36,22.85,18.62,42.68,34,65.63,3.86,10.08,9.86,23.08,16.34,25.09C324.37,1017,381,975.86,381,975.86c7.16,14.81,15.48,29.43,35.2,41.42,2.41,1.47,4.69,2.85,6.56,4,3.61,2.29,7.13,4.46,10.52,6.56,12,7.43,22.43,13.84,32.13,22.6,2.59,2.33,5.23,4.68,7.89,7,20.69,18.37,43.34,39,48.55,61.44,4.41,19,5.28,39.08,6.21,60.38.81,18.59,0,38.67,3.36,57.3h27.07c-2.91-15.93-3-29.36-3.81-47.4-.62-14.27-1.26-28.86-3-43.46,1-9.48.54-17.23,3.83-25.53l1.07-2.7c4.66-11.78,9.94-25.13,17.42-34.68a54.3,54.3,0,0,1,24-17.81c35.33-13.72,55.25-29.79,59.21-47.75.61-2.78,1.21-5.58,1.81-8.39,1.17-5.48,2.37-11.14,3.69-16.56,4.09-16.85,11.32-31.13,25-49.28,1.23-1.64,2.45-3.33,3.67-5l1.33-1.85c6.92,2.75,22.49,13.33,26.48,17.48a75.94,75.94,0,0,1,5.79,7.59c7,9.94,17.35,24.51,32.34,24.51a24.26,24.26,0,0,0,4.64-.46l-.05-.26.18.11c9.88-16.47,11.27-32,12.29-43.39a92.49,92.49,0,0,1,1.11-9.29c1.68-8.11,2.91-16,4-25.43.53-4.64,1.11-9.31,1.66-13.83,2.07-16.72,4.21-34,4.21-52.75l-73-12c-.26,12.78-3.34,23.71-4.24,34.18-.48,5.53-1.07,10.73-1.64,14.65-1.09,7.45-2.3,18.77-5,25.42-1,2.45-2,4.68-3.23,7.25-7.77,5.34-13.3,13-18.22,19.88-1.17,1.62-2.32,3.24-3.5,4.8-10.35,13.78-21.7,31-27.37,54.39-1.36,5.61-2.59,11.37-3.78,16.95-.59,2.78-1.18,5.55-1.79,8.29-2.8,12.73-20.78,26.12-50.6,37.71a68.66,68.66,0,0,0-30,22.22c-8.74,11.15-14.41,25.5-19.42,38.16l-.29.75c-9-31.51-34.23-53.92-56.72-73.89-2.58-2.29-5.14-4.56-7.64-6.82-12.4-11.2-24.8-18.85-37.93-26.95-3.29-2-6.69-4.13-10.08-6.28-2.19-1.39-4.63-2.87-7.21-4.44-3-1.82-7.9-5.09-11.17-10.25-7.38-11.63-12.14-26-22.11-42.28-1.39-2.26-2.7-4.39-3.4-5.63a449.11,449.11,0,0,1-22.85-46.3c-4.49-10.59-7.64-22.89-10.67-34.79C350.78,845,349.59,837,346,827.7Z" transform="translate(120.94 -42.58)"/></g><g class="cls-2"><path class="cls-10" d="M577,121.16c-14.12-7.66-26.63-17.65-41.33-24.28-29.48-13.31-64.15-22.18-97.49-12.42" transform="translate(120.94 -42.58)"/><path class="cls-11" d="M773.25,354.43c4.35,7.38-5.94,12.1-11,14.52-8.5,4-17.18,11.48-37.53,14.13-6.71.88-20,2.59-26.42.3-6.81-2.42-12.13-1-18.59-4.06-15.23-7.2-35-7.63-52.27-7.17-6.3.17-13.14,1.44-19.16,1" transform="translate(120.94 -42.58)"/><path class="cls-12" d="M773.25,354.43c4.35,7.38-5.94,12.1-11,14.52-8.5,4-17.18,11.48-37.53,14.13-6.71.88-20,2.59-26.42.3-6.81-2.42-12.13-1-18.59-4.06-15.23-7.2-35-7.63-52.27-7.17-6.3.17-13.14,1.44-19.16,1" transform="translate(120.94 -42.58)"/><path class="cls-13" d="M181.33,316.34c5.8,6.47,20.13,12.71,29.84,15" transform="translate(120.94 -42.58)"/></g><g class="cls-2"><path class="cls-14" d="M313.37,361c-5.8,11.55-14.59,42.58-15.46,49.34-3.39,26.28-3.49,47,.28,72.9,3.74,25.66-.13,51.3,6.67,77.1,5.94,22.53,15.4,45.4,19.6,68.42,4.24,23.26,4.88,42.29,12.74,64.5,8.32,23.53,18.4,43.5,33.62,62.9,9.59,12.23,11.7,18.16,48.3,46.52,21.61,16.74,38,31.69,65.45,31,18.94-.49,39.44,3.88,58.13.43,31-5.73,54.27-44.6,73-67.54,18.86-23.13,39.74-45,53-72.32,15.77-32.49,7.7-73.23,9.32-108.48,2.36-51.46,11.37-100.91-2.9-151.71-3.91-13.91-19.69-52.25-26.08-69.55-6.53-17.67-24.19-47.9-40.25-57.75C601.4,302.24,588.6,294.47,574,290c-15.16-4.64-32.18-5.92-42.55-7.07-10.79-1.2-26.33-3-42.29-2.6-16.56.4-33.56,3-46.16,3.86-19.87,1.35-26.33,2.25-47.1,8-12.09,3.37-41,16.73-52.08,26.22-9.93,8.52-24.58,30.87-30.46,42.56" transform="translate(120.94 -42.58)"/><path class="cls-15" d="M313.37,361c-5.8,11.55-14.59,42.58-15.46,49.34-3.39,26.28-3.49,47,.28,72.9,3.74,25.66-.13,51.3,6.67,77.1,5.94,22.53,15.4,45.4,19.6,68.42,4.24,23.26,4.88,42.29,12.74,64.5,8.32,23.53,18.4,43.5,33.62,62.9,9.59,12.23,11.7,18.16,48.3,46.52,21.61,16.74,38,31.69,65.45,31,18.94-.49,39.44,3.88,58.13.43,31-5.73,54.27-44.6,73-67.54,18.86-23.13,39.74-45,53-72.32,15.77-32.49,7.7-73.23,9.32-108.48,2.36-51.46,11.37-100.91-2.9-151.71-3.91-13.91-19.69-52.25-26.08-69.55-6.53-17.67-24.19-47.9-40.25-57.75C601.4,302.24,588.6,294.47,574,290c-15.16-4.64-32.18-5.92-42.55-7.07-10.79-1.2-26.33-3-42.29-2.6-16.56.4-33.56,3-46.16,3.86-19.87,1.35-26.33,2.25-47.1,8-12.09,3.37-41,16.73-52.08,26.22C333.89,327,319.24,349.31,313.37,361Z" transform="translate(120.94 -42.58)"/></g><g class="cls-2"><path class="cls-16" d="M289.39,475.85a29.29,29.29,0,0,1,.2-10.78c.27-.89.5-1.8.82-2.68l1.18-2.58,1.54-2.4c.58-.75,1.22-1.46,1.84-2.19a29.59,29.59,0,0,1,9.3-6.39,51.25,51.25,0,0,1,10.56-3.38l2.7-.48c.9-.15,1.81-.25,2.71-.37,1.82-.23,3.51-.39,5.28-.56,3.5-.34,7-.6,10.53-.8,7-.33,14.13-.4,21.23-.1,3.55.13,7.12.34,10.69.59,1.79.12,3.58.29,5.37.45l5.18.55c6.51.63,13.05,1.15,19.67,1.72,1.65.16,3.31.27,5,.39s3.33.23,5,.34c.83.05,1.73.11,2.34.13s1.36,0,2.06,0a27.82,27.82,0,0,0,4.31-.5,98.41,98.41,0,0,0,9.6-2.63,43.44,43.44,0,0,1,10.74-2l.43,1.33c-.71.56-1.44,1-2.12,1.56s-1.39,1-2.06,1.57l-4,3.26a54.24,54.24,0,0,1-9.15,6.25,30.33,30.33,0,0,1-5.69,2.27,40.9,40.9,0,0,1-5.93,1.14c-1.79.25-3.58.42-5.37.59s-3.6.24-5.41.32a82.91,82.91,0,0,1-21.66-2l-5-1.27c-1.62-.38-3.25-.78-4.89-1.11s-3.29-.66-4.95-1-3.32-.53-5-.75c-6.69-.89-13.46-1.45-20.26-1.75-3.4-.18-6.81-.31-10.23-.36-1.69,0-3.46-.05-5.09,0-.82,0-1.65,0-2.46.06l-2.45.16a45.05,45.05,0,0,0-9.51,1.78,25.7,25.7,0,0,0-8.38,4.27,17.42,17.42,0,0,0-5.54,7.53,27.12,27.12,0,0,0-1.64,9.77Z" transform="translate(120.94 -42.58)"/><path class="cls-16" d="M663.67,455.15a7,7,0,0,1-4.86.07,19.32,19.32,0,0,1-4.17-1.9,69.22,69.22,0,0,1-7.07-5.08c-1.1-.86-2.2-1.73-3.22-2.46-.27-.19-.48-.33-.76-.5l-.83-.51c-.55-.34-1.12-.65-1.69-1a40.89,40.89,0,0,0-7.09-3,50.61,50.61,0,0,0-7.5-1.79,69.44,69.44,0,0,0-7.75-.85,66.8,66.8,0,0,0-15.29.78,74.06,74.06,0,0,0-14.88,4.47c-2.47,1-5,1.87-7.54,2.71q-1.92.63-3.9,1.19l-1,.27c-.36.1-.8.22-1.2.31-.82.2-1.63.4-2.44.54a52.21,52.21,0,0,1-18.62-.17,74.64,74.64,0,0,1-16.93-5.19v-1.7c5.62-2.45,11.3-3.76,16.61-5.12A124.21,124.21,0,0,0,568.15,432c.55-.18,1.07-.41,1.59-.62l1.8-.7c1.33-.51,2.68-1,4.07-1.42a69,69,0,0,1,8.53-2.09,131.64,131.64,0,0,1,18-1.77,77.82,77.82,0,0,1,9.15.21c1.52.15,3,.29,4.53.55s3,.5,4.47.81a77.09,77.09,0,0,1,8.68,2.42,59.63,59.63,0,0,1,8.35,3.62,48.67,48.67,0,0,1,7.6,5c.59.48,1.16,1,1.73,1.47l.83.76c.28.26.6.56.86.84,1.08,1.11,2,2.2,2.89,3.27a66.52,66.52,0,0,0,5.5,6,16.47,16.47,0,0,0,3,2.33,5.15,5.15,0,0,0,3.32.79Z" transform="translate(120.94 -42.58)"/><path class="cls-16" d="M436.55,215.74c-19-3.67-45.54,6-63.14,12.39s-41.07,12.3-53.64,27.18c-2.11,2.5-18.26,35.57-21.27,45.19-2.17,6.93-3.84,12.28-6.83,15.17-21.15,20.33-36.58,62.53-38.17,92.2-.83,15.56,3.23,30.78,4.06,46.26.16,3-.79,4,2.08,4.71,1.21.29,4.17,1.64,5.38,1.32,1.55-.42,2.5-6.84,2.89-8.59,1-4.35,1.75-8.75,2.48-13.14,1.45-8.76,1.88-18.94,5.91-26.88,6-11.71,15.48-24.2,26.08-32.18,11-8.27,26.33-11.46,39.93-10.25,16.75,1.49,29.63,12.41,44.75,18.54,12,4.87,25,6.51,37.81,8.3a487,487,0,0,0,52.32,4.5c8,.25,17-1,24.81.41,8.23,1.47,16.11,2.74,24.53,2.35a109.44,109.44,0,0,0,18.19-2.54c5.42-1.18,10.54-3.35,16-4.55,16.6-3.68,34.45-1.75,51.3-1.29,16.42.45,33.17.06,49.35,3.28,13.5,2.69,22.91,10.84,29.75,22.62,1.75,3,3.06,6.38,4.53,9.55q1.61,3.47,3.17,7c.9,2,1.79,4,2.64,6,.46,1.1,1.33,3.88,2,5.07.19.34,5.91,0,8.09-.14-.16-9.23-3.7-19.11-6-28-1.74-6.73-2.37-13.66-4.52-20.31-3.06-9.45-11.16-32.41-19.48-42.66-5.43-6.69-13.7-34.27-18.1-45.75-9.12-23.77-28.42-63.81-66-77.6-50.66-18.61-107.78-15.79-160.9-18.16" transform="translate(120.94 -42.58)"/></g><g class="cls-2"><path class="cls-17" d="M293,312.42c9.21-22.43,21.26-49.37,30.07-71.65,9.12-23.06,13.51-47.65,22-70.91,11.21-30.59,21.66-61.13,39.43-87.39,10.28-15.19,25.55-11.06,39.61.2,12.76,10.22,34.21,19.86,51.35,22.24,19.29,2.68,36.84-.37,56-2.85,32.38-4.19,85.93-12.27,105,18.74,9,14.62,9,29.83,9.46,47.43.51,18.79,4,36.69,7,54.56,2.64,16.07.69,34.9,4.29,50.82,2.88,12.73,4.28,25.46,6.33,38.3,1.53,9.54,6.91,19.24,6.27,29" transform="translate(120.94 -42.58)"/><path class="cls-18" d="M293,312.42c9.21-22.43,21.26-49.37,30.07-71.65,9.12-23.06,13.51-47.65,22-70.91,11.21-30.59,21.66-61.13,39.43-87.39,10.28-15.19,25.55-11.06,39.61.2,12.76,10.22,34.21,19.86,51.35,22.24,19.29,2.68,36.84-.37,56-2.85,32.38-4.19,85.93-12.27,105,18.74,9,14.62,9,29.83,9.46,47.43.51,18.79,4,36.69,7,54.56,2.64,16.07.69,34.9,4.29,50.82,2.88,12.73,4.28,25.46,6.33,38.3,1.53,9.54,6.91,19.24,6.27,29" transform="translate(120.94 -42.58)"/><path class="cls-17" d="M295.49,306c-18.7-3.23-41.57,5.07-60.91,3.22-11.19-1.07-22.41-.47-33.58-1.22-9.61-.65-36.73-11.16-36.56-4.83,3.87,10.45,27.83,20.79,41.42,28.2,11.45,6.24,27.36,9.5,39.93,13.27,22.74,6.82,106.66,14,157.88,19,64.07,6.2,116.68,18.61,175.58,9.11,59.9-9.66,120,1.8,179.62-7.52,5.58-.87,16.75-2.25,18.44-4.4,1.82-2.31-1.53-9.78-7.24-13.9-20.45-14.74-75.8-22.76-87.55-22.45" transform="translate(120.94 -42.58)"/><path class="cls-19" d="M295.49,306c-18.7-3.23-41.57,5.07-60.91,3.22-11.19-1.07-22.41-.47-33.58-1.22-9.61-.65-36.73-11.16-36.56-4.83,3.87,10.45,27.83,20.79,41.42,28.2,11.45,6.24,27.36,9.5,39.93,13.27,22.74,6.82,106.66,14,157.88,19,64.07,6.2,116.68,18.61,175.58,9.11,59.9-9.66,120,1.8,179.62-7.52,5.58-.87,16.75-2.25,18.44-4.4,1.82-2.31-1.53-9.78-7.24-13.9-20.45-14.74-75.8-22.76-87.55-22.45" transform="translate(120.94 -42.58)"/><path class="cls-11" d="M698.11,323.4a59.51,59.51,0,0,1-20.45,1.2l-13.33.69c-26.35,1.39-59.33,3.13-86.62,3.13a327.1,327.1,0,0,1-33.22-1.35c-16.75-1.8-38.72-4-60.08-5.21-17.86-1-90.9-1.71-108.15-1.25-12,.33-21.58-1.57-30.83-3.4a148.77,148.77,0,0,0-18.49-2.85c-1-.07-2.48-.16-4.31-.26C285,312,273.1,308.9,267.15,299.56c-7.59-11.92-1.56-27.05,7.78-36.76,8.58-8.91,20.54-8.48,26.3-8.28a104.41,104.41,0,0,1,23,3.69A108.49,108.49,0,0,0,337.88,261c15.54,1.91,33.55,3.9,50.61,3.44,19.31-.51,97.55.42,119.32,2.77,23.74,2.56,107.63,14.45,125.8,19.27a114.27,114.27,0,0,0,14.54,2.38,139.5,139.5,0,0,1,18.18,3.06l.5.13a102,102,0,0,0,11.81,2.51c6.06-.3,11.29-.53,15.34-.64Z" transform="translate(120.94 -42.58)"/></g></g></g></svg>